PathFileType	4	(X/Y/Z)	./resultDataOpenSim/trcMotMarkerGrf/sub09/qtm-04-01.trc
DataRate	CameraRate	NumFrames	NumMarkers	Units	OrigDataRate	OrigDataStartFrame	OrigNumFrames
250.000000	250.000000	15	24	m	250.000000	380	506
Frame#	Time	L.Toe.Tip			R.Toe.Tip			L.Ankle.Lat			R.Ankle.Lat			L.Ankle.Med			R.Ankle.Med			L.Heel			R.Heel			L.Knee.Lat			R.Knee.Lat			L.Knee.Med			R.Knee.Med			L.Thigh.Upper			R.Thigh.Upper			L.ASIS			R.ASIS			V.Sacral			L.Acromium			R.Acromium			C7			L.Elbow			R.Elbow			L.Wrist.Lat			R.Wrist.Lat
		X1	Y1	Z1	X2	Y2	Z2	X3	Y3	Z3	X4	Y4	Z4	X5	Y5	Z5	X6	Y6	Z6	X7	Y7	Z7	X8	Y8	Z8	X9	Y9	Z9	X10	Y10	Z10	X11	Y11	Z11	X12	Y12	Z12	X13	Y13	Z13	X14	Y14	Z14	X15	Y15	Z15	X16	Y16	Z16	X17	Y17	Z17	X18	Y18	Z18	X19	Y19	Z19	X20	Y20	Z20	X21	Y21	Z21	X22	Y22	Z22	X23	Y23	Z23	X24	Y24	Z24

380	1.516	0.98672643	0.12489929	-0.013758982	1.1115546	0.039347055	0.11503167	0.90243372	0.25214755	-0.040023827	0.96581004	0.058184646	0.14911077	0.93221876	0.24110148	0.053722962	0.97715057	0.096644577	0.057508104	0.82403216	0.26815311	0.0084102965	0.89491215	0.041707303	0.10067347	1.2081818	0.51770104	-0.060514505	1.1000177	0.49420886	0.20957912	1.2170808	0.50864396	0.066957254	1.0808319	0.48503888	0.08516757	1.0199026	0.8822666	-0.092703676	1.016514	0.89450036	0.27765029	1.0894255	0.97021197	-0.034190491	1.098857	0.97912962	0.20319014	0.92730274	1.0308342	0.084954775	1.0941252	1.4248648	-0.089998867	1.0746533	1.4411304	0.2416167	1.0122475	1.481591	0.072351333	0.95071944	1.0845574	-0.13453625	0.95195461	1.0970959	0.33030974	1.0631218	0.85018168	-0.1774185	1.1180223	0.87488933	0.32521686
381	1.52	1.0040591	0.12338888	-0.013301928	1.111676	0.039359678	0.11500189	0.91638465	0.24792577	-0.040092139	0.96590605	0.0584794	0.14895166	0.94645381	0.2378691	0.053634799	0.9774492	0.097013307	0.05741506	0.8374612	0.26205904	0.0078564512	0.89505955	0.042072689	0.10038264	1.216652	0.52007226	-0.060384291	1.101342	0.49428162	0.20967685	1.2254361	0.51142326	0.066945904	1.0820925	0.4851824	0.085492088	1.0251172	0.88339988	-0.092889335	1.0212512	0.89525129	0.27758772	1.0944674	0.97140923	-0.034271916	1.1039202	0.97996325	0.20313719	0.93225519	1.031621	0.084955555	1.0985225	1.4258283	-0.090259044	1.0796702	1.4421167	0.2414013	1.0170213	1.4825313	0.07225358	0.9544906	1.0858119	-0.13478537	0.95714327	1.0980078	0.33022832	1.0667968	0.85143857	-0.17849899	1.123519	0.87603586	0.32456601
382	1.524	1.0215503	0.12180599	-0.01293663	1.1118735	0.03940331	0.11494008	0.9304474	0.24358286	-0.040155551	0.96599828	0.058781381	0.14878796	0.96056738	0.23447759	0.053617106	0.97757914	0.097396809	0.057248636	0.85109351	0.25571093	0.0073538374	0.89513217	0.042572212	0.1000858	1.2250011	0.52237319	-0.060262488	1.1026902	0.49431138	0.20982583	1.2335504	0.51410972	0.066882615	1.0832604	0.48539485	0.085707822	1.0303461	0.88446049	-0.093067612	1.0259241	0.89597623	0.27752948	1.0995124	0.97254053	-0.034352168	1.1089683	0.98075752	0.20308399	0.93722451	1.0323628	0.084943226	1.1029365	1.4267578	-0.090544173	1.0846836	1.4430395	0.24119312	1.0218045	1.4834132	0.072164886	0.95826923	1.0869892	-0.13509193	0.96232635	1.0988661	0.33015674	1.0705155	0.85264083	-0.1795665	1.1289928	0.87711883	0.32391807
383	1.528	1.0391324	0.12013107	-0.012683464	1.1120406	0.039415594	0.11487115	0.94464988	0.23910825	-0.040222628	0.96608731	0.059101339	0.14862525	0.97472917	0.23092606	0.053623675	0.97763423	0.097802313	0.057065518	0.86488218	0.24914661	0.0069234111	0.89520772	0.043140287	0.099845554	1.2332358	0.52458449	-0.060150791	1.104041	0.49432187	0.21000584	1.2415665	0.51670513	0.066804369	1.0844487	0.48562989	0.085896167	1.0356082	0.88545414	-0.093246589	1.0305686	0.89667343	0.27747032	1.1045718	0.97360189	-0.034429103	1.1139939	0.98150775	0.20303267	0.9422208	1.0330755	0.084901999	1.1073626	1.4276463	-0.090849531	1.0896988	1.4439015	0.24099773	1.0265927	1.48424	0.072077209	0.96204892	1.0880771	-0.13547038	0.96750668	1.0996697	0.33009504	1.0742789	0.85378342	-0.18062217	1.1344419	0.87813787	0.32327601
384	1.532	1.0567243	0.11838482	-0.012527427	1.1120544	0.039356981	0.11484014	0.95899902	0.23450243	-0.040296924	0.96619897	0.05943965	0.14845863	0.98902907	0.22722174	0.053627121	0.97777093	0.098227118	0.056920255	0.87880154	0.24241365	0.0065726725	0.89529379	0.043717442	0.099636127	1.2413173	0.52669384	-0.060066759	1.1053677	0.49435743	0.21018695	1.2494401	0.51919194	0.06670763	1.0857869	0.48579969	0.086107898	1.0408954	0.88638459	-0.093428776	1.0352162	0.89733896	0.27740664	1.1096506	0.97459166	-0.034504451	1.1190008	0.98221552	0.20298748	0.94722417	1.0337543	0.084829757	1.1117924	1.4284712	-0.091149459	1.0947397	1.4447158	0.24080671	1.0313857	1.4850246	0.071984956	0.96583942	1.0890793	-0.13590201	0.97268271	1.1004157	0.33004026	1.0780902	0.85486506	-0.18166626	1.1398654	0.87909099	0.32263992
385	1.536	1.0742917	0.11660205	-0.012439619	1.1119414	0.039273642	0.11486185	0.97348611	0.22977805	-0.040374312	0.96637897	0.059779461	0.14827624	1.0034867	0.22337451	0.053607364	0.97800009	0.098651251	0.056829809	0.89290987	0.23553767	0.0062795537	0.89535269	0.04429183	0.09938459	1.2491849	0.5287097	-0.060029536	1.1066575	0.49440542	0.21034738	1.2571067	0.52155446	0.066577757	1.0872896	0.485852	0.086335274	1.0461922	0.8872518	-0.093619424	1.0398629	0.89797546	0.27733433	1.1147462	0.97551202	-0.034579603	1.1239952	0.98288761	0.20295118	0.95219647	1.0343822	0.084735759	1.1162201	1.4292195	-0.091424991	1.0998525	1.4455106	0.24058913	1.0361828	1.4857734	0.071887462	0.96967161	1.0900213	-0.13632078	0.97785194	1.1011013	0.32998954	1.0819486	0.855888	-0.18269518	1.1452633	0.87997698	0.32200814
386	1.54	1.0918636	0.11480128	-0.012408827	1.1118617	0.03925599	0.11491338	0.9881074	0.2249494	-0.040450413	0.96664634	0.060101181	0.14807673	1.0180865	0.21940046	0.053550709	0.97825701	0.099044053	0.056808677	0.90728375	0.22853008	0.0060174217	0.89535432	0.044882629	0.09902352	1.2568212	0.53064725	-0.06003763	1.1079042	0.49444226	0.2104724	1.264576	0.52377975	0.066412845	1.0888649	0.48583268	0.086557433	1.0514895	0.88805547	-0.093821569	1.0445074	0.89858319	0.27725528	1.1198513	0.97636725	-0.034651454	1.1289802	0.98352969	0.20292236	0.95711828	1.0349496	0.084629452	1.1206434	1.4299015	-0.091681614	1.1050697	1.4463087	0.24030237	1.0409756	1.4864815	0.071780414	0.97357195	1.0909238	-0.13666609	0.98302233	1.1017297	0.32994702	1.0858476	0.85685617	-0.18370409	1.1506352	0.88079616	0.32137934
387	1.544	1.1094893	0.11298577	-0.012437667	1.111926	0.039344353	0.11497536	1.0028678	0.22002505	-0.040527411	0.96694691	0.060404899	0.14788407	1.0328136	0.21532779	0.053449401	0.9785408	0.099381539	0.056896485	0.92191964	0.2214169	0.005779305	0.89531938	0.045504868	0.098560899	1.2642742	0.53250113	-0.060073498	1.1091302	0.49447775	0.21057987	1.2718951	0.52585341	0.066222577	1.090457	0.48583679	0.086779002	1.0567911	0.88879825	-0.094033753	1.0491511	0.8991577	0.27717496	1.1249596	0.97716181	-0.03471336	1.1339534	0.9841407	0.20289865	0.9620018	1.0354599	0.084510144	1.125063	1.4305335	-0.091934826	1.1103531	1.4470915	0.23993994	1.0457595	1.4871363	0.071660174	0.97753803	1.0917791	-0.13693944	0.98820824	1.1023091	0.32992175	1.0897827	0.85777225	-0.18469163	1.1559811	0.88154915	0.32075312
388	1.548	1.1271908	0.11116337	-0.012520735	1.1121128	0.039496449	0.11504424	1.0177736	0.21501309	-0.040616654	0.96716448	0.060715651	0.14774435	1.0476796	0.21119318	0.053294125	0.97893136	0.099675143	0.05711222	0.93675779	0.21423533	0.0055713492	0.89530472	0.046147225	0.098112261	1.2716035	0.5342424	-0.060129536	1.1103812	0.49452321	0.21071562	1.2790865	0.52776552	0.066011351	1.0920483	0.48591629	0.086998825	1.0621086	0.88948842	-0.094251039	1.0537744	0.8996989	0.27709409	1.1300723	0.9778999	-0.034760834	1.1389112	0.98471619	0.20288068	0.96687002	1.0359242	0.084371136	1.1294851	1.4311204	-0.092190903	1.1156087	1.4478017	0.23956331	1.0505433	1.4877262	0.071534383	0.98154806	1.0925714	-0.13718206	0.99341317	1.1028419	0.32991579	1.093758	0.85863388	-0.18566042	1.1613076	0.8822398	0.32013031
389	1.552	1.1449663	0.10935089	-0.012640062	1.1123279	0.039632536	0.11511094	1.0328263	0.2099293	-0.040730895	0.9672032	0.061063316	0.1476957	1.0627296	0.20702893	0.05307774	0.9794478	0.099969461	0.057357913	0.95176401	0.20700635	0.0053985424	0.89533379	0.046784847	0.097812356	1.2788234	0.53584286	-0.060208856	1.1116713	0.49457	0.21090148	1.2861304	0.52951649	0.065773878	1.0935642	0.48606438	0.087176638	1.0674507	0.89013793	-0.094467958	1.0583624	0.90021281	0.27701052	1.135198	0.97858527	-0.034795345	1.1438545	0.98525469	0.20287149	0.97173311	1.0363528	0.084212312	1.1339203	1.4316576	-0.092446563	1.1207722	1.4483979	0.23924483	1.0553406	1.4882559	0.071412142	0.98558654	1.0933023	-0.13741869	0.9986255	1.1033216	0.32991919	1.0977848	0.8594323	-0.18661567	1.1666297	0.88287777	0.31951295
390	1.556	1.1628189	0.10756626	-0.012770691	1.1124765	0.039701546	0.11515205	1.0480162	0.20479516	-0.040867774	0.96708548	0.061456175	0.14772684	1.0780108	0.2028525	0.052814044	0.9799074	0.10029153	0.057416201	0.96694325	0.19972609	0.005255381	0.89538555	0.047406423	0.097682647	1.2859053	0.5372837	-0.060310918	1.1129859	0.49460147	0.21113012	1.2929893	0.53111064	0.065504518	1.0949005	0.48626254	0.087269952	1.0728182	0.89075275	-0.094683039	1.0629216	0.90070471	0.27692423	1.1403433	0.97921878	-0.034821381	1.1487877	0.98575689	0.20287366	0.97658549	1.0367481	0.084037948	1.1383764	1.4321404	-0.092699304	1.1258507	1.4488856	0.238998	1.0601584	1.4887488	0.071294007	0.98965095	1.0939802	-0.13765136	1.0038312	1.1037421	0.32991907	1.1018724	0.86016012	-0.18756107	1.1719636	0.88347086	0.3189053
391	1.56	1.1807608	0.10582664	-0.012889227	1.1125091	0.03970477	0.11514743	1.0633169	0.19963142	-0.041004254	0.96695179	0.061875843	0.14777556	1.0935092	0.19866141	0.052552276	0.98007762	0.10062265	0.057142242	0.98230693	0.19238014	0.0051251813	0.89545155	0.048016825	0.097616063	1.2928163	0.53854684	-0.06043977	1.1143217	0.49460906	0.21139088	1.2996533	0.53254454	0.065202779	1.0960694	0.48649093	0.087301987	1.0782042	0.89132723	-0.09489736	1.0674484	0.90117569	0.27683545	1.1455079	0.9797972	-0.034843426	1.153713	0.98622091	0.20288712	0.98141244	1.0371056	0.083848803	1.1428535	1.4325684	-0.092950703	1.1308873	1.4492949	0.23879038	1.064992	1.4892224	0.071178019	0.99373943	1.0945979	-0.13789394	1.0090279	1.1041059	0.3299117	1.1060134	0.86082474	-0.18849295	1.1773088	0.88400869	0.31831814
392	1.564	1.1987919	0.10415539	-0.012989068	1.1124551	0.039676263	0.11510895	1.0786975	0.1944552	-0.041114985	0.96692996	0.062296004	0.14778455	1.1091303	0.1944339	0.052348355	0.97998446	0.10094644	0.056657441	0.99785678	0.18496202	0.0049877908	0.89554647	0.048620029	0.097494039	1.2995535	0.53961932	-0.060608545	1.1156861	0.49460245	0.21167173	1.3061422	0.53380527	0.06487094	1.0972696	0.48670237	0.087363253	1.0835955	0.89185355	-0.095109323	1.0719358	0.90162056	0.27674462	1.1506882	0.98031771	-0.034865565	1.1586295	0.98664313	0.20290926	0.98620014	1.037425	0.083648045	1.1473485	1.4329435	-0.093201391	1.1359167	1.4496494	0.23859114	1.0698279	1.4896652	0.071060013	0.99784997	1.0951401	-0.13817364	1.0142247	1.1044208	0.32990315	1.1101844	0.86144632	-0.18940453	1.1826427	0.88445424	0.31777343
393	1.568	1.2168879	0.10258474	-0.013085768	1.1123941	0.039652521	0.11507317	1.0941507	0.18927313	-0.041197598	0.96703151	0.062700454	0.147743	1.1247722	0.19014751	0.052208961	0.97992544	0.10130577	0.056268508	1.0135892	0.17748242	0.0048269666	0.89566722	0.04921361	0.09729435	1.3061478	0.54049636	-0.060822511	1.1170834	0.49460296	0.21196198	1.3124625	0.53488187	0.064512843	1.0987173	0.48684136	0.087519576	1.0889767	0.89233265	-0.095315047	1.0764103	0.90202637	0.27665437	1.15588	0.98078253	-0.034890427	1.1635426	0.98701994	0.20293616	0.99095017	1.0377198	0.083447214	1.1518611	1.4332678	-0.093449284	1.1409472	1.4499573	0.23839007	1.0746572	1.4900516	0.070934109	1.0019914	1.095601	-0.13849552	1.0194319	1.1046905	0.32989991	1.1143737	0.86203182	-0.19029498	1.1879469	0.88476318	0.31729769
394	1.572	1.2350177	0.10114155	-0.013197519	1.1123716	0.039644651	0.11505809	1.1097067	0.18407557	-0.041275743	0.96719005	0.063086963	0.14766851	1.140397	0.18580363	0.052097574	0.98016023	0.10175629	0.056180084	1.0295087	0.16996204	0.0046395624	0.89578155	0.049800124	0.097087149	1.3126277	0.54118559	-0.061077867	1.1184993	0.49462489	0.21223856	1.3186035	0.53577377	0.06413542	1.1004186	0.48690057	0.087746891	1.0943378	0.89277017	-0.095514136	1.0809087	0.90237962	0.27656568	1.1610821	0.9811958	-0.034917908	1.1684745	0.98734288	0.20296352	0.99568275	1.0380007	0.083254389	1.1563929	1.433543	-0.093693719	1.1459697	1.4502168	0.23819094	1.0794824	1.490371	0.070800992	1.0061756	1.0959888	-0.1388411	1.0246511	1.1049131	0.32990051	1.1185999	0.86255969	-0.19116657	1.193223	0.88492955	0.31689162
